<?xml version="1.0" encoding="UTF-8"?><svg xmlns="http://www.w3.org/2000/svg" viewBox="0 0 239.59 94.7"><g id="a"/><g id="b"><g id="c"><g><path d="M15.88,54.65l-6.37,17.76H1.7L22.78,13.21h9.66l21.99,59.2h-8.36l-6.57-17.76H15.88Zm21.61-6.72c-5.64-15.56-8.75-23.83-10.03-28.34h-.08c-1.45,5.02-4.91,15.03-9.46,28.34h19.57Z"/><path d="M63.78,13.21h7.79v29.04c4.4-4.56,19.43-19.45,28.77-29.04h9.77l-25.45,24.96,26.71,34.23h-9.53l-22.7-29.15-7.57,6.85v22.29h-7.79V13.21Z"/><path d="M133.79,19.93h-19.12v-6.72h46.17v6.72h-19.15v52.47h-7.9V19.93Z"/><path d="M177.13,13.21v59.2h-7.85V13.21h7.85Z"/><path d="M207.34,72.41l-21.55-59.2h8.43l10.43,29.51c3.05,8.69,6.1,17.44,7.4,22.85h.17c1.25-4.85,4.61-13.99,7.71-22.57l10.85-29.79h8.1l-22.28,59.2h-9.27Z"/></g></g></g></svg>